#!OML:ASF E:\inclinewalkrobotboard\Project 1\Capture day 1\Session 1\subject1.ASF
:FULLY-SPECIFIED
:DEGREES
16
root 9.56309 16.6325 17.9178 -167.909 1.13705 179.661
lowerback -11.3052 2.67253 -6.52622
upperback -0.194427 4.41105 1.07077
thorax 5.56092 2.01226 5.49266
lowerneck -4.83579 9.15731 0.874514
upperneck 17.1135 11.5488 1.59924
head 5.93048 5.54091 1.08236
rclavicle 1.91579e-014 -1.98785e-016
rhumerus -45.3452 -31.1764 -68.0981
rradius 27.0347
rwrist 16.394
rhand -17.554 -38.8889
rfingers 7.12502
rthumb 8.70073 -68.6896
lclavicle 1.91579e-014 -1.98785e-016
lhumerus -28.1799 9.80267 86.3211
lradius 15.4618
lwrist -31.5671
lhand -30.1935 -20.4696
lfingers 7.12502
lthumb -3.50434 9.48138
rfemur -6.91547 1.1678 21.35
rtibia 8.51836
rfoot -16.7427 -7.14685
rtoes -20.8459
lfemur -11.1452 -8.77931 -19.897
ltibia 8.93986
lfoot -10.6393 -2.74434
ltoes -48.7287
17
root 9.56645 16.6325 17.921 -167.939 1.03946 179.632
lowerback -11.2201 2.75682 -6.49589
upperback -0.200978 4.51405 1.04737
thorax 5.49614 2.06712 5.45815
lowerneck -4.59713 9.40959 1.04349
upperneck 16.8579 11.9163 1.42453
head 5.83068 5.727 1.0079
rclavicle -3.01159e-014 -1.07344e-014
rhumerus -45.5404 -31.3564 -67.8862
rradius 27.1105
rwrist 16.8514
rhand -17.0361 -39.0603
rfingers 7.12502
rthumb 9.20048 -68.8396
lclavicle -3.01159e-014 -1.07344e-014
lhumerus -28.1017 9.37583 86.4855
lradius 15.5136
lwrist -31.2047
lhand -30.2716 -20.1326
lfingers 7.12502
lthumb -3.57973 9.81709
rfemur -6.89394 1.22254 21.3528
rtibia 8.53484
rfoot -16.7606 -7.31552
rtoes -20.1903
lfemur -11.1716 -8.75431 -19.905
ltibia 8.9991
lfoot -10.5724 -2.84653
ltoes -48.7953
18
root 9.569 16.6317 17.9206 -167.894 0.898827 179.615
lowerback -11.2482 2.84262 -6.41683
upperback -0.198701 4.62254 1.0075
thorax 5.50879 2.12255 5.38846
lowerneck -4.46446 9.6444 1.18618
upperneck 16.6997 12.2563 1.2737
head 5.77768 5.89755 0.951242
rclavicle 4.41302e-014 -5.1684e-015
rhumerus -45.7473 -31.5843 -67.6947
rradius 27.1503
rwrist 16.8628
rhand -17.3729 -38.4112
rfingers 7.12502
rthumb 8.87556 -68.2045
lclavicle 4.41302e-014 -5.1684e-015
lhumerus -28.042 8.97442 86.6469
lradius 15.6449
lwrist -30.9387
lhand -30.3464 -19.9855
lfingers 7.12502
lthumb -3.65197 9.96294
rfemur -6.90881 1.19408 21.368
rtibia 8.4972
rfoot -16.7734 -7.45569
rtoes -21.4762
lfemur -11.26 -8.75808 -19.8998
ltibia 9.01507
lfoot -10.4651 -2.93686
ltoes -48.8202
19
root 9.57164 16.6308 17.9193 -167.787 0.696118 179.658
lowerback -11.3526 2.93303 -6.25871
upperback -0.217298 4.73295 0.972155
thorax 5.54809 2.18105 5.28468
lowerneck -4.24627 9.8908 1.41417
upperneck 16.5461 12.6035 1.09835
head 5.72023 6.07393 0.87052
rclavicle -1.96797e-014 -1.98785e-015
rhumerus -45.913 -31.8077 -67.5424
rradius 27.1735
rwrist 16.7269
rhand -17.7528 -38.3011
rfingers 7.12502
rthumb 8.50892 -68.1096
lclavicle -1.96797e-014 -1.98785e-015
lhumerus -28.007 8.50316 86.8052
lradius 15.7419
lwrist -30.7074
lhand -30.6687 -20.382
lfingers 7.12502
lthumb -3.96325 9.5609
rfemur -6.97799 1.10115 21.4572
rtibia 8.45961
rfoot -16.779 -7.57485
rtoes -22.4691
lfemur -11.4315 -8.78494 -19.8122
ltibia 9.05459
lfoot -10.3482 -3.06915
ltoes -48.8499
20
root 9.57302 16.631 17.9172 -167.742 0.575988 179.69
lowerback -11.4182 3.04783 -6.11544
upperback -0.218168 4.87348 0.947706
thorax 5.57902 2.25329 5.20303
lowerneck -3.75496 10.2173 1.8221
upperneck 16.0901 13.0908 0.677473
head 5.554 6.32174 0.674182
rclavicle 5.8393e-014 -7.7526e-015
rhumerus -45.9442 -31.9032 -67.4422
rradius 27.1516
rwrist 16.8581
rhand -17.5887 -38.9391
rfingers 7.12502
rthumb 8.66722 -68.7411
lclavicle 5.8393e-014 -7.7526e-015
lhumerus -27.9843 7.97911 86.9841
lradius 15.8128
lwrist -30.3823
lhand -30.9106 -20.8839
lfingers 7.12502
lthumb -4.19679 9.05446
rfemur -6.989 1.00536 21.5118
rtibia 8.42383
rfoot -16.7755 -7.5698
rtoes -22.1915
lfemur -11.4666 -8.79257 -19.7612
ltibia 9.03624
lfoot -10.2783 -3.1765
ltoes -48.8771
21
root 9.57451 16.6315 17.9147 -167.772 0.523865 179.656
lowerback -11.3837 3.19152 -6.05463
upperback -0.198671 5.05516 0.92368
thorax 5.5641 2.34436 5.16667
lowerneck -4.36549 10.7889 1.08592
upperneck 16.4089 13.8683 1.23766
head 5.66686 6.69608 1.04123
rclavicle -4.96962e-015 4.96962e-015
rhumerus -45.964 -31.9569 -67.3076
rradius 27.064
rwrist 16.9903
rhand -17.456 -39.2381
rfingers 7.12502
rthumb 8.79536 -69.0348
lclavicle -4.96962e-015 4.96962e-015
lhumerus -27.914 7.54498 87.1624
lradius 15.8777
lwrist -30.0713
lhand -30.6107 -20.5397
lfingers 7.12502
lthumb -3.9072 9.40421
rfemur -6.91693 1.00922 21.4818
rtibia 8.37871
rfoot -16.7987 -7.58219
rtoes -21.9653
lfemur -11.3568 -8.7976 -19.7993
ltibia 8.91196
lfoot -10.2196 -3.20183
ltoes -48.8782
22
root 9.57747 16.6321 17.9149 -167.814 0.440722 179.547
lowerback -11.2922 3.3255 -6.08748
upperback -0.175786 5.23288 0.881766
thorax 5.51544 2.43236 5.15831
lowerneck -3.35599 11.2208 1.77579
upperneck 15.5738 14.5016 0.615413
head 5.33818 7.02902 0.707154
rclavicle -8.72168e-015 3.97569e-015
rhumerus -46.1332 -32.1026 -67.1025
rradius 27.1364
rwrist 17.2841
rhand -17.5739 -39.0707
rfingers 7.12502
rthumb 8.6815 -68.8722
lclavicle -8.72168e-015 3.97569e-015
lhumerus -27.746 7.24876 87.2865
lradius 15.8774
lwrist -29.8916
lhand -30.6071 -20.1801
lfingers 7.12502
lthumb -3.90369 9.76389
rfemur -6.8502 1.03425 21.3739
rtibia 8.35725
rfoot -16.8341 -7.69658
rtoes -20.9523
lfemur -11.2887 -8.81462 -19.9097
ltibia 8.83386
lfoot -10.1432 -3.24259
ltoes -48.8482
23
root 9.57998 16.6328 17.918 -167.835 0.295104 179.367
lowerback -11.2211 3.41567 -6.19464
upperback -0.164944 5.36467 0.823607
thorax 5.46632 2.49665 5.16874
lowerneck -3.44698 11.863 1.54519
upperneck 15.6275 15.3683 0.860388
head 5.33867 7.46014 0.869644
rclavicle -3.65267e-014 -1.15295e-014
rhumerus -46.4181 -32.3263 -66.8432
rradius 27.355
rwrist 18.0114
rhand -17.534 -38.817
rfingers 7.12502
rthumb 8.72003 -68.6169
lclavicle -3.65267e-014 -1.15295e-014
lhumerus -27.6002 6.81242 87.4479
lradius 15.933
lwrist -29.5154
lhand -31.0811 -20.6649
lfingers 7.12502
lthumb -4.36144 9.27015
rfemur -6.82181 0.981874 21.1885
rtibia 8.35565
rfoot -16.8529 -7.85685
rtoes -20.0777
lfemur -11.3162 -8.83573 -20.101
ltibia 8.87099
lfoot -10.0424 -3.36738
ltoes -48.7912
24
root 9.58262 16.6336 17.922 -167.857 0.10685 179.284
lowerback -11.1318 3.53259 -6.19651
upperback -0.162554 5.51529 0.797386
thorax 5.40184 2.57377 5.15421
lowerneck -2.69497 12.3588 2.15722
upperneck 14.9575 16.0898 0.292942
head 5.10912 7.83418 0.588183
rclavicle -3.91606e-014 1.39149e-015
rhumerus -46.6314 -32.5437 -66.598
rradius 27.3824
rwrist 18.4943
rhand -17.5387 -38.6324
rfingers 7.12502
rthumb 8.71554 -68.4325
lclavicle -3.91606e-014 1.39149e-015
lhumerus -27.4957 6.29973 87.6464
lradius 16.0215
lwrist -29.1226
lhand -31.2681 -21.2605
lfingers 7.12502
lthumb -4.54201 8.67084
rfemur -6.79175 0.955567 21.1288
rtibia 8.36253
rfoot -16.8767 -8.05495
rtoes -20.1962
lfemur -11.3699 -8.88541 -20.1666
ltibia 8.94202
lfoot -9.95287 -3.48976
ltoes -48.7805
